<mxfile host="app.diagrams.net" agent="Mozilla/5.0 (X11; Linux x86_64) AppleWebKit/537.36 (KHTML, like Gecko) Chrome/128.0.0.0 Safari/537.36" version="24.7.16">
  <diagram name="Page-1" id="69g39gva253gPbehGL0q">
    <mxGraphModel dx="1008" dy="1675" grid="1" gridSize="10" guides="1" tooltips="1" connect="1" arrows="1" fold="1" page="1" pageScale="1" pageWidth="850" pageHeight="1100" math="0" shadow="0">
      <root>
        <mxCell id="0" />
        <mxCell id="1" parent="0" />
        <mxCell id="Jm4xmCkBHBDVd0ZQ5fSF-1" value="Compute Manager&lt;br&gt;(monitors resources and dispatches compute jobs)" style="rounded=0;whiteSpace=wrap;html=1;" vertex="1" parent="1">
          <mxGeometry x="240" y="730" width="390" height="100" as="geometry" />
        </mxCell>
        <mxCell id="Jm4xmCkBHBDVd0ZQ5fSF-2" value="&lt;font style=&quot;font-size: 25px;&quot;&gt;Kernel&amp;nbsp;&lt;br&gt;(coordinates managers)&lt;/font&gt;" style="rounded=0;whiteSpace=wrap;html=1;" vertex="1" parent="1">
          <mxGeometry x="240" y="350" width="390" height="370" as="geometry" />
        </mxCell>
        <mxCell id="Jm4xmCkBHBDVd0ZQ5fSF-3" value="Network Manager&amp;nbsp;&lt;br&gt;sends/receives updates from peers" style="rounded=0;whiteSpace=wrap;html=1;" vertex="1" parent="1">
          <mxGeometry x="640" y="350" width="110" height="370" as="geometry" />
        </mxCell>
        <mxCell id="Jm4xmCkBHBDVd0ZQ5fSF-4" value="Compute Worker" style="rounded=0;whiteSpace=wrap;html=1;" vertex="1" parent="1">
          <mxGeometry x="235" y="840" width="90" height="80" as="geometry" />
        </mxCell>
        <mxCell id="Jm4xmCkBHBDVd0ZQ5fSF-5" value="Compute Worker" style="rounded=0;whiteSpace=wrap;html=1;" vertex="1" parent="1">
          <mxGeometry x="335" y="840" width="90" height="80" as="geometry" />
        </mxCell>
        <mxCell id="Jm4xmCkBHBDVd0ZQ5fSF-6" value="Compute Worker" style="rounded=0;whiteSpace=wrap;html=1;" vertex="1" parent="1">
          <mxGeometry x="440" y="840" width="90" height="80" as="geometry" />
        </mxCell>
        <mxCell id="Jm4xmCkBHBDVd0ZQ5fSF-7" value="Compute Worker" style="rounded=0;whiteSpace=wrap;html=1;" vertex="1" parent="1">
          <mxGeometry x="540" y="840" width="90" height="80" as="geometry" />
        </mxCell>
        <mxCell id="Jm4xmCkBHBDVd0ZQ5fSF-10" value="Peer&amp;nbsp;" style="rounded=0;whiteSpace=wrap;html=1;" vertex="1" parent="1">
          <mxGeometry x="760" y="530" width="90" height="40" as="geometry" />
        </mxCell>
        <mxCell id="Jm4xmCkBHBDVd0ZQ5fSF-11" value="State Manager&lt;br&gt;&lt;br&gt;Dispatches workers to update the state data structure from network, io, and compute" style="rounded=0;whiteSpace=wrap;html=1;" vertex="1" parent="1">
          <mxGeometry x="110" y="350" width="120" height="370" as="geometry" />
        </mxCell>
        <mxCell id="Jm4xmCkBHBDVd0ZQ5fSF-12" value="IO manager" style="rounded=0;whiteSpace=wrap;html=1;" vertex="1" parent="1">
          <mxGeometry x="240" y="250" width="390" height="90" as="geometry" />
        </mxCell>
        <mxCell id="Jm4xmCkBHBDVd0ZQ5fSF-13" value="Render State Object" style="rounded=0;whiteSpace=wrap;html=1;" vertex="1" parent="1">
          <mxGeometry x="440" y="160" width="185" height="80" as="geometry" />
        </mxCell>
        <mxCell id="Jm4xmCkBHBDVd0ZQ5fSF-14" value="Handle Input" style="rounded=0;whiteSpace=wrap;html=1;" vertex="1" parent="1">
          <mxGeometry x="240" y="160" width="190" height="80" as="geometry" />
        </mxCell>
        <mxCell id="Jm4xmCkBHBDVd0ZQ5fSF-16" value="State Worker" style="whiteSpace=wrap;html=1;aspect=fixed;" vertex="1" parent="1">
          <mxGeometry x="20" y="450" width="80" height="80" as="geometry" />
        </mxCell>
        <mxCell id="Jm4xmCkBHBDVd0ZQ5fSF-17" value="Peer&amp;nbsp;" style="rounded=0;whiteSpace=wrap;html=1;" vertex="1" parent="1">
          <mxGeometry x="760" y="580" width="90" height="40" as="geometry" />
        </mxCell>
        <mxCell id="Jm4xmCkBHBDVd0ZQ5fSF-18" value="Peer&amp;nbsp;" style="rounded=0;whiteSpace=wrap;html=1;" vertex="1" parent="1">
          <mxGeometry x="760" y="630" width="90" height="40" as="geometry" />
        </mxCell>
        <mxCell id="Jm4xmCkBHBDVd0ZQ5fSF-19" value="Peer&amp;nbsp;" style="rounded=0;whiteSpace=wrap;html=1;" vertex="1" parent="1">
          <mxGeometry x="760" y="680" width="90" height="40" as="geometry" />
        </mxCell>
        <mxCell id="Jm4xmCkBHBDVd0ZQ5fSF-20" value="Group Master" style="rounded=0;whiteSpace=wrap;html=1;" vertex="1" parent="1">
          <mxGeometry x="760" y="470" width="90" height="50" as="geometry" />
        </mxCell>
        <mxCell id="Jm4xmCkBHBDVd0ZQ5fSF-21" value="Peer finder" style="rounded=0;whiteSpace=wrap;html=1;" vertex="1" parent="1">
          <mxGeometry x="760" y="350" width="90" height="50" as="geometry" />
        </mxCell>
        <mxCell id="Jm4xmCkBHBDVd0ZQ5fSF-22" value="State Worker" style="whiteSpace=wrap;html=1;aspect=fixed;" vertex="1" parent="1">
          <mxGeometry x="20" y="540" width="80" height="80" as="geometry" />
        </mxCell>
        <mxCell id="Jm4xmCkBHBDVd0ZQ5fSF-23" value="State Worker" style="whiteSpace=wrap;html=1;aspect=fixed;" vertex="1" parent="1">
          <mxGeometry x="20" y="630" width="80" height="80" as="geometry" />
        </mxCell>
        <mxCell id="Jm4xmCkBHBDVd0ZQ5fSF-24" value="State Worker" style="whiteSpace=wrap;html=1;aspect=fixed;" vertex="1" parent="1">
          <mxGeometry x="20" y="350" width="80" height="80" as="geometry" />
        </mxCell>
        <mxCell id="Jm4xmCkBHBDVd0ZQ5fSF-26" value="Root Server" style="rounded=0;whiteSpace=wrap;html=1;" vertex="1" parent="1">
          <mxGeometry x="760" y="410" width="90" height="50" as="geometry" />
        </mxCell>
        <mxCell id="Jm4xmCkBHBDVd0ZQ5fSF-28" value="&lt;font style=&quot;font-size: 23px;&quot;&gt;p2p Compute Client&lt;/font&gt;" style="text;html=1;align=center;verticalAlign=middle;whiteSpace=wrap;rounded=0;" vertex="1" parent="1">
          <mxGeometry x="230" y="100" width="420" height="30" as="geometry" />
        </mxCell>
        <mxCell id="Jm4xmCkBHBDVd0ZQ5fSF-29" value="&lt;font style=&quot;font-size: 25px;&quot;&gt;Kernel&amp;nbsp;&lt;br&gt;(coordinates managers)&lt;/font&gt;" style="rounded=0;whiteSpace=wrap;html=1;" vertex="1" parent="1">
          <mxGeometry x="240" y="1200" width="390" height="370" as="geometry" />
        </mxCell>
        <mxCell id="Jm4xmCkBHBDVd0ZQ5fSF-30" value="&lt;font style=&quot;font-size: 23px;&quot;&gt;p2p Root Server&lt;/font&gt;" style="text;html=1;align=center;verticalAlign=middle;whiteSpace=wrap;rounded=0;" vertex="1" parent="1">
          <mxGeometry x="215" y="1130" width="420" height="30" as="geometry" />
        </mxCell>
        <mxCell id="Jm4xmCkBHBDVd0ZQ5fSF-32" value="State Manager&lt;br&gt;&lt;br&gt;Dispatches workers to update the state data structure from network, io, and compute" style="rounded=0;whiteSpace=wrap;html=1;" vertex="1" parent="1">
          <mxGeometry x="110" y="1200" width="120" height="370" as="geometry" />
        </mxCell>
        <mxCell id="Jm4xmCkBHBDVd0ZQ5fSF-33" value="State Worker" style="whiteSpace=wrap;html=1;aspect=fixed;" vertex="1" parent="1">
          <mxGeometry x="20" y="1300" width="80" height="80" as="geometry" />
        </mxCell>
        <mxCell id="Jm4xmCkBHBDVd0ZQ5fSF-34" value="State Worker" style="whiteSpace=wrap;html=1;aspect=fixed;" vertex="1" parent="1">
          <mxGeometry x="20" y="1390" width="80" height="80" as="geometry" />
        </mxCell>
        <mxCell id="Jm4xmCkBHBDVd0ZQ5fSF-35" value="State Worker" style="whiteSpace=wrap;html=1;aspect=fixed;" vertex="1" parent="1">
          <mxGeometry x="20" y="1480" width="80" height="80" as="geometry" />
        </mxCell>
        <mxCell id="Jm4xmCkBHBDVd0ZQ5fSF-36" value="State Worker" style="whiteSpace=wrap;html=1;aspect=fixed;" vertex="1" parent="1">
          <mxGeometry x="20" y="1200" width="80" height="80" as="geometry" />
        </mxCell>
        <mxCell id="Jm4xmCkBHBDVd0ZQ5fSF-37" value="Compute Manager&lt;br&gt;Divides Main&amp;nbsp;" style="rounded=0;whiteSpace=wrap;html=1;" vertex="1" parent="1">
          <mxGeometry x="240" y="1580" width="390" height="100" as="geometry" />
        </mxCell>
        <mxCell id="Jm4xmCkBHBDVd0ZQ5fSF-38" value="Compute Worker" style="rounded=0;whiteSpace=wrap;html=1;" vertex="1" parent="1">
          <mxGeometry x="235" y="1690" width="90" height="80" as="geometry" />
        </mxCell>
        <mxCell id="Jm4xmCkBHBDVd0ZQ5fSF-39" value="Compute Worker" style="rounded=0;whiteSpace=wrap;html=1;" vertex="1" parent="1">
          <mxGeometry x="335" y="1690" width="90" height="80" as="geometry" />
        </mxCell>
        <mxCell id="Jm4xmCkBHBDVd0ZQ5fSF-40" value="Compute Worker" style="rounded=0;whiteSpace=wrap;html=1;" vertex="1" parent="1">
          <mxGeometry x="440" y="1690" width="90" height="80" as="geometry" />
        </mxCell>
        <mxCell id="Jm4xmCkBHBDVd0ZQ5fSF-41" value="Compute Worker" style="rounded=0;whiteSpace=wrap;html=1;" vertex="1" parent="1">
          <mxGeometry x="540" y="1690" width="90" height="80" as="geometry" />
        </mxCell>
      </root>
    </mxGraphModel>
  </diagram>
</mxfile>
